<?xml version="1.0" standalone="no"?>
<!DOCTYPE svg PUBLIC "-//W3C//DTD SVG 20010904//EN"
 "http://www.w3.org/TR/2001/REC-SVG-20010904/DTD/svg10.dtd">
<svg version="1.0" xmlns="http://www.w3.org/2000/svg"
 width="1536.000000pt" height="1024.000000pt" viewBox="0 0 1536.000000 1024.000000"
 preserveAspectRatio="xMidYMid meet">

<g transform="translate(0.000000,1024.000000) scale(0.100000,-0.100000)"
fill="#000000" stroke="none">
<path d="M8540 6669 c-520 -16 -1140 -59 -1690 -114 -215 -22 -501 -58 -496
-62 6 -7 287 15 483 36 98 11 252 25 343 30 91 6 235 16 320 21 209 14 534 28
765 34 190 4 190 4 50 -5 -396 -26 -671 -53 -995 -101 -80 -11 -82 -13 -45
-19 35 -6 32 -7 -25 -7 -66 -1 -186 -18 -140 -21 14 0 99 6 190 14 349 30 895
48 1510 48 1347 1 2170 -100 2672 -327 168 -76 264 -157 325 -278 25 -47 28
-64 28 -153 0 -134 -19 -174 -162 -336 -143 -162 -312 -309 -473 -409 -38 -25
-49 -36 -37 -38 14 -3 9 -10 -21 -32 -64 -46 -116 -70 -133 -59 -8 5 -9 9 -3
9 5 0 19 7 30 15 10 9 -28 -7 -86 -36 -108 -53 -131 -66 -93 -55 12 4 24 2 28
-4 8 -12 -103 -66 -290 -140 -177 -70 -185 -74 -185 -84 0 -4 14 -6 30 -4 20
3 30 0 30 -8 0 -7 -8 -11 -20 -9 -16 3 -20 -2 -20 -25 0 -16 -7 -35 -15 -44
-8 -8 -13 -21 -10 -29 14 -34 -480 -150 -882 -207 -513 -72 -1347 -117 -2798
-150 -553 -13 -1695 -13 -1862 0 -322 25 -442 91 -444 246 -1 57 -1 58 -11 24
-14 -49 -4 -139 21 -187 42 -84 148 -145 307 -178 190 -39 201 -39 3059 -42
l2771 -4 12 60 c17 80 33 117 79 178 101 134 262 213 434 213 106 0 175 -22
248 -80 72 -57 96 -113 96 -222 0 -49 2 -88 3 -88 2 0 49 9 103 20 226 46 297
113 362 340 14 47 28 100 32 118 l7 32 -256 0 c-159 0 -257 4 -261 10 -3 6 4
10 17 10 34 0 522 91 531 100 4 4 19 49 32 101 13 52 64 254 113 449 101 395
115 474 103 570 -17 134 -54 218 -139 318 -171 202 -641 372 -1287 466 -606
89 -1410 123 -2255 95z m2830 -1553 c0 -2 -8 -10 -17 -17 -16 -13 -17 -12 -4
4 13 16 21 21 21 13z m-873 -533 c-15 -16 -17 -16 -17 -1 0 9 6 18 13 21 20 7
22 -2 4 -20z"/>
<path d="M6288 6483 c12 -2 30 -2 40 0 9 3 -1 5 -23 4 -22 0 -30 -2 -17 -4z"/>
<path d="M6208 6473 c7 -3 16 -2 19 1 4 3 -2 6 -13 5 -11 0 -14 -3 -6 -6z"/>
<path d="M6133 6463 c9 -2 25 -2 35 0 9 3 1 5 -18 5 -19 0 -27 -2 -17 -5z"/>
<path d="M6078 6453 c7 -3 16 -2 19 1 4 3 -2 6 -13 5 -11 0 -14 -3 -6 -6z"/>
<path d="M7013 6453 c15 -2 37 -2 50 0 12 2 0 4 -28 4 -27 0 -38 -2 -22 -4z"/>
<path d="M6918 6443 c12 -2 32 -2 45 0 12 2 2 4 -23 4 -25 0 -35 -2 -22 -4z"/>
<path d="M6833 6433 c9 -2 25 -2 35 0 9 3 1 5 -18 5 -19 0 -27 -2 -17 -5z"/>
<path d="M5608 6383 c6 -2 18 -2 25 0 6 3 1 5 -13 5 -14 0 -19 -2 -12 -5z"/>
<path d="M5950 6044 c-30 -2 -201 -8 -380 -14 -675 -23 -726 -26 -1021 -74
-151 -25 -285 -46 -299 -48 -14 -2 184 -2 439 1 l464 4 -7 -29 c-4 -16 -8 -30
-10 -31 -1 -1 -87 -14 -191 -28 -405 -56 -404 -55 -102 -49 l268 4 -7 -22 c-3
-13 -8 -24 -9 -26 -3 -4 -805 -40 -1063 -49 -116 -3 -211 -7 -210 -9 8 -7
1296 -54 1485 -54 l132 0 7 45 6 46 408 -3 408 -3 26 -24 c48 -45 30 -134 -39
-186 -66 -51 -100 -55 -456 -55 l-328 0 9 31 c7 24 6 31 -7 36 -9 3 -184 3
-389 0 l-374 -6 -40 -32 c-22 -18 -37 -35 -34 -38 3 -3 84 -8 179 -11 95 -3
176 -8 179 -11 6 -5 -29 -137 -38 -147 -5 -5 -868 -49 -1046 -53 -124 -3 -61
-7 504 -29 279 -10 510 -21 512 -23 3 -2 -1 -27 -7 -55 -12 -50 -13 -51 -53
-56 -23 -3 -169 -10 -326 -16 -157 -5 -420 -16 -585 -22 l-300 -13 140 -6 c77
-4 334 -12 570 -18 237 -6 449 -14 471 -17 l42 -5 -13 -50 c-8 -28 -16 -53
-18 -56 -5 -5 -320 -26 -702 -47 -132 -7 -206 -14 -165 -15 204 -4 833 -31
838 -36 3 -2 -7 -51 -22 -107 -14 -57 -26 -109 -26 -117 0 -11 47 -12 278 -7
875 21 1197 58 1432 167 150 69 238 219 228 388 -3 58 -9 78 -34 113 -32 47
-116 102 -179 119 -22 6 -47 13 -55 16 -8 2 17 15 56 27 101 33 169 73 239
142 79 77 123 163 132 256 15 169 -69 260 -273 294 -81 13 -451 17 -644 8z
m184 -918 c71 -30 86 -101 37 -178 -34 -53 -89 -84 -177 -98 -76 -13 -674 -13
-674 -1 0 5 16 71 35 148 19 76 35 139 35 141 0 1 160 2 355 2 282 0 363 -3
389 -14z"/>
<path d="M7040 6035 c11 -13 15 -13 22 -3 7 9 8 7 4 -7 -3 -11 -1 -27 5 -35 9
-13 10 -12 5 3 -3 10 -2 16 2 13 19 -12 -4 -137 -75 -401 -156 -579 -155 -575
-156 -665 -1 -75 2 -93 26 -142 54 -111 180 -191 363 -231 86 -18 131 -21 339
-21 186 0 261 4 334 17 297 55 484 176 606 392 51 91 70 147 141 414 62 235
169 626 180 664 5 16 -11 17 -244 17 l-250 0 -6 -27 c-10 -40 -87 -320 -167
-603 -80 -281 -109 -352 -174 -414 -79 -77 -228 -114 -411 -103 -114 7 -168
31 -191 85 -19 46 -16 64 74 402 36 135 85 319 109 410 44 166 50 195 36 173
-9 -14 -223 -3 -307 16 -27 7 -61 14 -75 17 -24 5 -24 6 -5 17 12 7 88 14 190
17 156 5 147 6 -109 8 -250 2 -277 0 -266 -13z m1515 -5 c3 -5 39 -10 78 -10
50 0 67 3 57 10 -11 7 -7 10 18 10 18 0 31 -4 28 -9 -3 -4 5 -6 17 -4 12 2 29
-1 37 -7 13 -9 13 -11 0 -20 -8 -6 -26 -10 -40 -9 -14 1 -36 -3 -50 -8 -14 -6
-56 -11 -94 -12 -38 -1 -78 -7 -88 -12 -20 -11 -138 -9 -138 2 0 9 -21 6 -37
-4 -16 -10 -16 -3 -2 46 l10 37 99 0 c55 0 102 -4 105 -10z m-1415 -20 c0 -5
-4 -10 -9 -10 -6 0 -13 5 -16 10 -3 6 1 10 9 10 9 0 16 -4 16 -10z"/>
<path d="M7618 6043 c7 -3 16 -2 19 1 4 3 -2 6 -13 5 -11 0 -14 -3 -6 -6z"/>
<path d="M9531 6045 c3 -2 184 -5 402 -6 375 -1 396 -2 387 -19 -6 -11 -27
-20 -62 -24 -53 -7 -109 -22 -139 -37 -22 -10 -81 -21 -133 -24 -22 -1 -70 -7
-106 -13 -36 -6 -78 -9 -95 -6 -88 13 -170 16 -203 5 -58 -17 -193 -21 -238
-5 -21 7 -81 19 -132 26 l-92 12 32 18 c18 9 29 17 23 17 -23 1 -119 -63 -179
-120 -146 -136 -195 -344 -111 -471 59 -89 175 -138 553 -232 142 -36 270 -70
287 -76 70 -27 84 -72 37 -120 -52 -52 -68 -53 -607 -57 -396 -4 -502 -7 -507
-17 -4 -8 -29 -41 -54 -75 -62 -82 -160 -161 -278 -220 -91 -47 -94 -49 -63
-55 54 -9 792 -6 957 5 211 14 427 42 638 84 297 59 317 66 379 127 34 33 68
81 91 127 31 64 38 87 41 154 4 102 -9 143 -63 204 -78 86 -188 128 -587 223
-135 32 -262 65 -282 74 -65 27 -67 94 -4 132 30 18 57 19 574 22 l543 3 16
57 c8 31 22 77 29 102 8 25 23 78 34 118 l20 72 -556 0 c-306 0 -554 -2 -552
-5z"/>
<path d="M10810 6045 c0 -3 -48 -170 -106 -373 -95 -328 -244 -860 -244 -869
0 -27 486 178 571 241 16 11 87 251 240 810 27 98 52 183 55 187 3 5 -111 9
-255 9 -144 0 -261 -2 -261 -5z"/>
<path d="M4188 5893 c6 -2 18 -2 25 0 6 3 1 5 -13 5 -14 0 -19 -2 -12 -5z"/>
<path d="M4325 5481 c-33 -3 -70 -13 -83 -22 -22 -16 -21 -17 40 -22 50 -4 72
-1 106 15 23 11 42 24 42 29 0 10 -9 10 -105 0z"/>
<path d="M3670 5460 c-75 -5 -51 -7 112 -8 129 -1 209 2 213 8 7 11 -158 11
-325 0z"/>
<path d="M10338 4633 c7 -3 16 -2 19 1 4 3 -2 6 -13 5 -11 0 -14 -3 -6 -6z"/>
<path d="M10245 4610 c-13 -5 -14 -9 -5 -9 8 0 24 4 35 9 13 5 14 9 5 9 -8 0
-24 -4 -35 -9z"/>
<path d="M10198 4593 c7 -3 16 -2 19 1 4 3 -2 6 -13 5 -11 0 -14 -3 -6 -6z"/>
<path d="M10938 4341 c-159 -52 -266 -173 -275 -311 -4 -57 -1 -72 24 -120 39
-77 93 -115 182 -130 242 -41 486 128 484 335 0 101 -45 170 -142 216 -65 31
-195 36 -273 10z m147 -132 c120 -30 146 -169 49 -265 -92 -92 -239 -92 -294
-1 -55 89 17 224 140 262 57 17 53 17 105 4z"/>
</g>
</svg>
